
<svg version="1.1" id="Layer_1" xmlns="http://www.w3.org/2000/svg" xmlns:xlink="http://www.w3.org/1999/xlink" x="0px" y="0px"
	 width="100%" viewBox="0 0 1000 1000" enable-background="new 0 0 1000 1000" xml:space="preserve">
<path fill="#FFFFFF" opacity="1.000000" stroke="none" 
	d="
M686.000000,1001.000000 
	C457.333344,1001.000000 229.166672,1001.000000 1.000000,1001.000000 
	C1.000000,667.666687 1.000000,334.333344 1.000000,1.000000 
	C334.333344,1.000000 667.666687,1.000000 1001.000000,1.000000 
	C1001.000000,334.333344 1001.000000,667.666687 1001.000000,1001.000000 
	C896.166687,1001.000000 791.333313,1001.000000 686.000000,1001.000000 
M315.828125,525.986328 
	C337.483551,525.933899 359.139008,525.881470 381.744141,525.998840 
	C403.585510,525.936523 425.426910,525.874146 447.579834,525.876709 
	C447.579834,525.876709 447.869659,526.008179 447.953583,526.940979 
	C447.969055,547.107117 448.104279,567.274475 447.903992,587.438477 
	C447.861389,591.725586 448.845032,593.165588 453.398102,593.111145 
	C473.561188,592.869812 493.729095,593.031067 513.970398,593.975281 
	C513.970398,615.860596 513.970398,637.745972 513.970398,659.866516 
	C536.955811,659.866516 559.067932,659.866516 582.090271,659.959778 
	C604.019043,659.918457 625.947815,659.877197 648.821472,659.965088 
	C669.482178,659.976440 690.143005,660.004089 710.803589,659.961853 
	C712.159424,659.959045 713.514282,659.421631 714.984558,658.169128 
	C714.933655,636.221252 714.882690,614.273438 714.724670,591.644165 
	C713.510803,590.290588 712.356873,588.877197 711.073975,587.592529 
	C692.177734,568.670105 673.249939,549.778931 654.385376,530.824890 
	C653.042297,529.475464 652.133728,527.693665 651.953308,526.022217 
	C672.602051,525.984680 693.250793,525.947144 714.629456,525.485962 
	C714.752441,524.673218 714.981995,523.860596 714.982788,523.047729 
	C715.002441,502.921783 715.005737,482.795807 714.976501,462.669891 
	C714.974915,461.570374 714.666016,460.471283 714.453552,459.063263 
	C692.106628,459.063263 670.012573,459.063263 646.992981,459.005615 
	C625.673096,458.949188 604.353271,458.892761 583.346252,458.271423 
	C603.238525,438.339417 623.137268,418.413879 643.011719,398.464142 
	C644.764282,396.704926 646.358154,394.787628 648.957825,392.993774 
	C669.399170,392.996033 689.840576,393.017181 710.281738,392.962280 
	C711.797668,392.958191 713.312073,392.407654 714.967651,391.165802 
	C714.967651,369.249359 714.967651,347.332947 714.967651,325.136230 
	C692.295471,325.136230 670.191711,325.136230 647.146729,325.013519 
	C625.195740,325.047577 603.244812,325.081665 580.313416,325.037415 
	C558.381470,325.037415 536.449524,325.037415 513.949829,325.037415 
	C513.949829,347.145813 513.949829,368.600281 513.316162,389.830627 
	C492.789276,369.296783 472.267609,348.757721 451.721466,328.243164 
	C450.590485,327.113892 449.256134,326.188324 447.087646,325.018768 
	C438.284149,325.012299 429.480682,325.011108 420.677185,324.998505 
	C385.800629,324.948547 350.924042,324.894958 316.015625,323.926758 
	C316.023743,313.323029 316.031891,302.719299 316.967529,292.015564 
	C327.564056,292.015564 338.160553,292.015564 348.648438,292.015564 
	C348.648438,269.068878 348.648438,246.734589 348.648438,225.142365 
	C337.506714,235.956497 326.171204,246.958725 313.920227,257.980804 
	C292.212769,257.980804 270.505341,257.980804 247.723175,257.980804 
	C249.765778,260.133240 250.964096,261.454041 252.223267,262.714111 
	C270.113892,280.617432 288.023682,298.501587 305.898285,316.420898 
	C308.709015,319.238678 311.369263,322.206604 314.009247,324.996979 
	C314.009247,324.996979 314.110962,325.094818 313.158966,325.034393 
	C291.580963,325.034393 270.002960,325.034393 248.202438,325.034393 
	C248.202438,347.575439 248.202438,369.362976 248.077621,391.711670 
	C248.094299,392.087219 248.110992,392.462799 248.013672,393.789917 
	C248.073273,415.749451 248.132858,437.708954 248.046555,460.655365 
	C248.079681,482.443237 248.112808,504.231110 248.018524,526.946167 
	C248.087234,548.935608 248.155945,570.925110 248.034851,593.845642 
	C247.990433,615.551208 247.945999,637.256714 247.322235,659.276855 
	C225.160522,681.402100 202.998810,703.527344 179.835617,726.652466 
	C203.812958,726.652466 226.125732,726.652466 249.038239,726.652466 
	C249.038239,704.263428 249.038239,682.180908 249.966904,660.013367 
	C269.894745,660.009583 289.822632,660.026794 309.750305,659.964539 
	C311.441986,659.959290 313.131989,659.422791 314.964569,658.183289 
	C314.976288,647.239868 315.040527,636.296265 314.985291,625.353149 
	C314.927612,613.928711 314.754822,602.504883 314.691315,590.112366 
	C314.752686,568.729858 314.814056,547.347290 315.828125,525.986328 
M723.810791,750.972107 
	C743.076050,750.972107 762.341370,750.972107 781.606628,750.972107 
	C781.670898,750.521179 781.735168,750.070190 781.799438,749.619263 
	C759.971985,727.373535 738.144531,705.127747 716.317078,682.882019 
	C715.880432,683.153381 715.443848,683.424683 715.007202,683.696045 
	C715.007202,701.779114 715.007202,719.862122 714.070068,737.994202 
	C698.496033,737.994202 682.921936,737.994202 667.370300,737.994202 
	C667.370300,760.950562 667.370300,783.398560 667.370300,805.846558 
	C672.989014,801.415710 677.416565,796.188477 682.227966,791.342346 
	C695.685730,777.787415 709.302246,764.390015 723.810791,750.972107 
M767.621826,309.302856 
	C772.184082,313.726532 776.746277,318.150238 781.571899,322.829285 
	C781.571899,290.601013 781.571899,259.163116 781.571899,227.725235 
	C781.202637,227.500000 780.833435,227.274765 780.464172,227.049530 
	C779.224243,228.618439 778.128052,230.331543 776.722046,231.733978 
	C762.587219,245.832443 748.401672,259.879913 733.881409,273.356323 
	C722.936096,262.439819 711.990784,251.523300 700.348267,239.911392 
	C700.348267,263.844177 700.348267,286.345276 700.348267,308.965240 
	C722.816467,308.965240 744.936768,308.965240 767.621826,309.302856 
M404.500641,661.000000 
	C420.873749,661.000000 437.246887,661.000000 453.353210,661.000000 
	C430.820648,638.402527 408.604553,616.122437 386.388672,593.842529 
	C386.388672,615.779480 386.388672,638.105713 386.388672,661.000000 
	C392.257751,661.000000 397.879517,661.000000 404.500641,661.000000 
M233.669434,311.043701 
	C233.711624,289.086731 233.755798,267.129730 233.769257,245.172729 
	C233.769394,244.942200 233.366196,244.711395 233.154007,244.483643 
	C226.923248,248.029968 167.730484,308.395874 167.158905,311.685394 
	C189.097641,311.685394 211.055908,311.685394 233.669434,311.043701 
M232.259415,626.481323 
	C232.839584,625.082947 233.916901,623.687378 233.924957,622.285706 
	C234.035980,602.965454 233.897125,583.643433 234.083786,564.324341 
	C234.122635,560.304016 233.171799,558.854065 228.871185,558.902649 
	C209.219696,559.124451 189.564301,558.995972 169.910324,559.011230 
	C168.864182,559.012024 167.818176,559.176086 166.772110,559.264160 
	C166.520233,559.685608 166.268372,560.107056 166.016495,560.528442 
	C187.892685,582.376953 209.768860,604.225464 232.259415,626.481323 
M775.999939,536.499939 
	C788.765015,523.734619 801.530029,510.969299 813.342712,499.156403 
	C797.069092,482.882141 781.397888,467.210297 766.423340,452.235138 
	C766.423340,482.390594 766.423340,513.813538 766.423340,546.552368 
	C770.013000,542.774414 772.756409,539.887146 775.999939,536.499939 
M829.001526,565.498230 
	C830.857483,563.568665 832.713440,561.639099 835.250610,559.001282 
	C812.975830,559.001282 792.005859,559.069641 771.037170,558.934143 
	C767.536743,558.911560 766.926025,560.370850 766.950378,563.412292 
	C767.063599,577.561646 767.000183,591.712341 767.000000,605.862610 
	C766.999878,612.613281 767.000000,619.363892 767.000000,627.511597 
	C788.131836,606.375854 808.316406,586.187500 829.001526,565.498230 
M197.000076,494.500061 
	C186.815109,504.679352 176.630157,514.858643 166.078934,525.403992 
	C167.257996,525.746155 167.683197,525.977234 168.108612,525.977600 
	C188.738724,525.997192 209.369339,525.925903 229.998520,526.066772 
	C233.540359,526.090942 234.059799,524.552490 234.045853,521.556702 
	C233.955338,502.091614 234.007416,482.625824 233.981369,463.160309 
	C233.979706,461.922852 233.713852,460.685730 233.413666,458.087433 
	C220.891479,470.609222 209.195740,482.304626 197.000076,494.500061 
M285.376648,740.907715 
	C307.249451,762.749939 329.122253,784.592163 351.744995,807.183289 
	C351.744995,783.498901 351.744995,761.419983 351.744995,739.004028 
	C329.548553,739.004028 307.605316,738.999390 285.662292,739.058838 
	C285.402618,739.059570 285.145172,739.886841 285.376648,740.907715 
M479.497284,800.002625 
	C499.194092,780.311401 518.890930,760.620178 538.770325,740.746399 
	C537.815308,740.279602 537.543701,740.030762 537.271851,740.030518 
	C516.475647,740.008362 495.678955,740.080261 474.883759,739.932068 
	C471.195953,739.905823 470.955139,741.712158 470.964966,744.560913 
	C471.032562,764.192322 470.992371,783.824097 471.024689,803.455688 
	C471.026428,804.512878 471.368713,805.569580 471.552490,806.626465 
	C472.174286,807.102722 472.796112,807.578918 473.417938,808.055115 
	C475.276978,805.538208 477.136017,803.021301 479.497284,800.002625 
M450.000000,243.498245 
	C450.000000,248.911179 450.000000,254.324112 450.000000,259.597717 
	C472.806763,259.597717 494.686676,259.597717 514.772644,259.597717 
	C493.519928,238.342606 471.576874,216.397034 450.000000,194.817719 
	C450.000000,209.915863 450.000000,226.207275 450.000000,243.498245 
M690.991333,689.739075 
	C689.577576,688.998230 688.163818,688.257385 686.000000,687.123474 
	C686.000000,690.756226 685.972229,693.056824 686.005310,695.356506 
	C686.094177,701.538635 690.035950,705.973877 696.300598,706.977600 
	C700.932312,707.719666 707.196533,703.965515 709.301758,699.186035 
	C711.395264,694.433167 709.448669,687.906189 704.886230,685.016541 
	C702.015625,683.198547 698.796814,681.892517 696.078979,679.889221 
	C694.932983,679.044495 694.043518,676.924377 694.201782,675.514648 
	C694.342468,674.261169 695.950806,672.489380 697.173096,672.242737 
	C698.278870,672.019470 699.769043,673.500488 701.034363,674.316101 
	C702.728638,675.408264 704.369507,676.583252 706.033264,677.722717 
	C706.362549,677.303955 706.691833,676.885193 707.021057,676.466431 
	C706.686340,675.580627 706.594482,674.433167 705.973083,673.856201 
	C703.757568,671.799377 701.634644,669.004089 698.968994,668.224792 
	C695.229431,667.131592 691.533936,668.387939 689.719727,672.711609 
	C688.088684,676.598816 688.903076,679.894714 692.014465,682.388367 
	C694.653198,684.503113 697.546082,686.451782 700.611877,687.846497 
	C704.993530,689.839722 706.050415,693.446228 704.705200,697.164062 
	C703.546997,700.364990 700.649597,702.880127 696.485352,701.971863 
	C692.309875,701.061157 690.311462,698.564636 690.974060,694.157654 
	C691.145630,693.016846 690.999329,691.828369 690.991333,689.739075 
M619.271179,667.000305 
	C609.744568,667.035889 602.266296,673.382446 602.038269,681.909485 
	C601.851379,688.897339 602.118958,695.897095 601.947510,702.885742 
	C601.868958,706.088684 603.126038,706.531433 606.000000,705.514526 
	C606.000000,701.987122 605.874634,698.507019 606.030151,695.039490 
	C606.250244,690.131226 606.200378,685.139893 607.127319,680.350830 
	C608.548035,673.010925 618.291077,669.069519 623.837280,673.466309 
	C627.587891,676.439636 628.932068,680.872131 628.982178,685.591248 
	C629.052734,692.225281 629.000000,698.860535 629.000000,705.916931 
	C630.507019,705.831421 631.668091,705.765564 633.000000,705.690002 
	C633.000000,698.322876 633.002075,691.342773 632.999512,684.362671 
	C632.996033,674.922913 629.246155,669.868225 619.271179,667.000305 
M502.885956,682.604736 
	C496.673431,682.286987 490.460907,681.969238 484.311188,681.654663 
	C484.311188,678.686646 484.311188,675.956787 484.311188,672.823669 
	C490.708130,672.823669 496.802460,672.823669 504.002502,672.823669 
	C502.751556,671.019287 502.084961,669.174622 501.362305,669.152405 
	C494.287292,668.934937 487.202972,669.021362 480.375214,669.021362 
	C480.375214,681.780090 480.375214,693.841675 480.375214,705.794067 
	C488.041656,705.794067 495.331268,705.794067 502.620880,705.794067 
	C502.900970,705.386353 503.181091,704.978638 503.461182,704.570862 
	C502.369965,703.714233 501.312988,702.174194 500.181732,702.117615 
	C494.916595,701.854065 489.630951,702.000854 484.268158,702.000854 
	C484.268158,696.442017 484.268158,691.379578 484.268158,685.999451 
	C489.662659,685.999451 494.801544,686.135376 499.921875,685.887695 
	C500.978729,685.836548 501.966431,684.356750 502.885956,682.604736 
M568.093567,701.241272 
	C568.093567,696.293701 568.093567,691.346069 568.093567,685.977295 
	C574.187561,685.977295 579.941406,685.977295 585.695190,685.977295 
	C585.957520,685.481812 586.219788,684.986328 586.482056,684.490845 
	C585.359314,683.660828 584.272095,682.177673 583.107666,682.114319 
	C578.180115,681.846497 573.229675,682.000793 568.289795,682.000793 
	C568.289795,678.729431 568.289795,676.000305 568.289795,672.861450 
	C574.329224,672.861450 580.088318,672.861450 585.847473,672.861450 
	C586.088989,672.485901 586.330566,672.110291 586.572083,671.734741 
	C585.690918,670.825012 584.835693,669.158081 583.924377,669.126831 
	C577.345276,668.900696 570.754761,669.005554 564.349976,669.005554 
	C564.349976,681.732117 564.349976,693.791138 564.349976,705.999146 
	C570.850098,705.999146 577.003174,705.907288 583.151794,706.034363 
	C586.717590,706.108032 586.330933,704.399231 585.423767,701.909729 
	C579.751709,701.909729 574.266052,701.909729 568.093567,701.241272 
M538.448669,694.043823 
	C540.988647,686.924622 543.176270,679.650818 546.207031,672.747070 
	C547.896851,668.897766 545.781433,668.856201 543.252686,667.873352 
	C539.797180,677.143921 536.468994,686.072937 532.778015,695.975220 
	C528.758911,685.786194 525.230164,676.840393 521.584473,667.597961 
	C519.221985,668.968262 517.124634,669.137756 518.776855,672.713684 
	C522.075439,679.852539 524.515503,687.387268 527.327393,694.751953 
	C529.049316,699.261902 530.803345,703.759705 532.542969,708.262939 
	C532.916138,708.167419 533.289246,708.071899 533.662415,707.976379 
	C535.125305,703.566345 536.588196,699.156250 538.448669,694.043823 
M337.000061,682.511475 
	C337.000061,689.939087 337.000061,697.366699 337.000061,704.999878 
	C341.737152,704.999878 345.881073,704.960693 350.023834,705.011230 
	C354.005371,705.059753 356.383270,702.882507 357.809601,699.458557 
	C360.658386,692.619995 358.391998,687.092041 353.151611,682.574890 
	C356.731964,675.416077 354.244293,670.650696 346.571442,669.903564 
	C343.478027,669.602417 340.330811,669.854004 337.000061,669.854004 
	C337.000061,674.229370 337.000061,677.873718 337.000061,682.511475 
M428.883453,692.399231 
	C431.095032,701.250854 437.577057,706.094788 447.083527,706.000000 
	C454.681091,705.924255 462.278229,699.830383 463.807068,692.201843 
	C464.125854,690.611084 463.145142,688.760010 462.763275,687.028870 
	C462.170074,688.256836 461.304657,689.426758 461.028839,690.722351 
	C459.488678,697.956299 452.323669,703.792053 445.770721,702.997681 
	C437.436829,701.987427 430.902802,695.290527 431.038696,687.567139 
	C431.152618,681.091797 434.303040,676.191406 439.896667,673.044983 
	C445.057098,670.142090 450.028961,671.625549 454.776184,674.342773 
	C457.446869,675.871399 457.417511,675.922668 458.786957,673.387939 
	C450.643860,666.255066 440.108337,667.930420 435.072784,672.402649 
	C429.214325,677.605713 427.025879,684.099792 428.883453,692.399231 
M255.000092,686.500549 
	C255.000183,691.651733 254.917130,696.805420 255.068359,701.952148 
	C255.099747,703.020569 256.000122,704.063416 256.500000,705.118042 
	C257.037842,704.914795 257.575653,704.711548 258.113495,704.508301 
	C258.113495,701.094482 258.113495,697.680664 258.113495,694.000000 
	C261.311371,694.000000 264.106934,694.013428 266.902252,693.997253 
	C272.623444,693.964111 277.012512,690.903320 278.762604,685.746765 
	C280.439606,680.805542 278.320312,674.871460 274.092773,671.492004 
	C268.134186,666.728760 261.511353,670.101257 255.000092,668.808105 
	C255.000092,674.904358 255.000092,680.202820 255.000092,686.500549 
M296.999939,686.378479 
	C296.999939,680.607544 296.999939,674.836609 296.999939,669.065674 
	C296.522980,668.930237 296.046021,668.794739 295.569061,668.659241 
	C295.046417,669.636658 294.089386,670.605957 294.070892,671.592834 
	C293.939758,678.583496 293.799011,685.585205 294.056976,692.568787 
	C294.321106,699.719666 300.241821,704.976135 307.515533,704.999939 
	C316.923035,705.030762 322.577881,700.707153 322.934601,692.668518 
	C323.244293,685.689148 323.045471,678.684509 322.941772,671.692932 
	C322.928528,670.799683 322.132477,669.918030 321.699066,669.031067 
	C321.132874,669.951477 320.097534,670.861084 320.076141,671.793945 
	C319.931091,678.117737 320.084259,684.447815 319.978516,690.773132 
	C319.849976,698.460266 312.977325,703.750977 305.572418,701.995361 
	C299.790741,700.624573 297.000214,695.852295 296.999939,686.378479 
M351.999969,718.772827 
	C351.880493,710.763611 348.713806,708.548096 340.995544,710.937195 
	C340.141113,711.201660 338.991333,710.970581 338.113525,710.625671 
	C332.916962,708.584167 329.226013,709.980469 327.988098,715.450562 
	C326.957672,720.003784 327.072235,724.816040 326.679657,729.513550 
	C327.279938,729.821594 327.880219,730.129639 328.480530,730.437683 
	C329.319611,729.309692 330.738068,728.251038 330.882874,727.040039 
	C331.236145,724.086060 330.617554,720.992249 331.144775,718.091797 
	C331.456787,716.375549 333.204071,714.920105 334.305969,713.347412 
	C335.532867,714.829285 337.511902,716.169434 337.823639,717.823730 
	C338.399353,720.878723 337.874115,724.125732 338.074066,727.275879 
	C338.138580,728.291809 339.039185,729.254639 340.039429,731.160278 
	C342.514191,724.391846 338.049255,716.991150 346.064392,712.443237 
	C346.805206,714.781372 347.745087,716.635193 347.922180,718.559143 
	C348.210785,721.695190 348.081207,724.879639 347.980469,728.038940 
	C347.872986,731.410828 349.412415,731.503723 352.000000,730.320007 
	C352.000000,726.675720 352.000000,723.188049 351.999969,718.772827 
M662.000000,691.495117 
	C662.000000,685.413147 662.000000,679.331116 662.000000,672.851379 
	C666.668945,672.851379 670.752625,672.851379 674.836365,672.851379 
	C675.085876,672.489136 675.335388,672.126892 675.584900,671.764587 
	C674.705505,670.844971 673.842712,669.145142 672.944214,669.126160 
	C663.691650,668.929932 654.433350,669.005676 643.872803,669.005676 
	C647.763855,675.892151 653.975891,671.044189 658.162109,673.875061 
	C658.162109,684.363098 658.162109,695.097168 658.162109,705.831238 
	C658.671448,706.057190 659.180847,706.283142 659.690186,706.509094 
	C660.459900,705.325012 661.783875,704.189819 661.893372,702.947632 
	C662.198425,699.485840 661.999817,695.979675 662.000000,691.495117 
M364.371399,718.148560 
	C362.787109,725.044983 367.997528,730.029297 373.390472,730.958130 
	C378.415802,731.823669 383.988739,727.795105 384.965820,722.657898 
	C386.040497,717.007507 382.827606,711.210999 377.985321,710.064331 
	C372.032166,708.654663 366.784119,711.640564 364.371399,718.148560 
M452.335266,710.000061 
	C445.427551,710.033630 441.441956,713.551636 441.008606,719.997864 
	C440.658997,725.198303 445.205536,730.309387 450.786713,730.990356 
	C455.415314,731.555054 461.249725,727.167542 461.961060,722.475159 
	C462.657104,717.883789 460.578888,711.045105 452.335266,710.000061 
M654.987976,722.706299 
	C654.329041,720.881592 653.376892,719.105835 653.063171,717.223572 
	C651.868225,710.053467 648.958313,708.594177 642.285034,711.872986 
	C642.285034,718.197388 642.285034,724.435974 642.285034,730.634216 
	C652.090393,731.645264 654.317993,730.369568 654.987976,722.706299 
M526.000000,722.461914 
	C526.000000,725.218018 526.000000,727.974060 526.000000,730.657959 
	C532.149963,731.657898 537.289001,730.841370 540.478882,725.826416 
	C542.668030,722.384888 542.723511,718.326538 540.214111,714.812622 
	C536.720825,709.920959 531.743835,709.407654 526.000000,710.385681 
	C526.000000,714.248535 526.000000,717.864197 526.000000,722.461914 
M306.727997,726.978577 
	C305.986481,724.861267 305.244965,722.743896 304.217529,719.810181 
	C308.368774,719.810181 311.104675,719.810181 313.840576,719.810181 
	C313.963348,719.182251 314.086090,718.554382 314.208862,717.926453 
	C311.068848,717.293823 307.928864,716.661133 304.788879,716.028503 
	C304.924316,715.553955 305.059753,715.079468 305.195190,714.604919 
	C313.804413,712.873596 313.804413,712.873596 313.198883,710.281372 
	C309.242981,710.281372 305.313232,710.281372 301.332336,710.281372 
	C301.332336,717.283875 301.332336,724.000793 301.332336,730.799683 
	C305.608704,730.799683 309.551208,730.799683 313.926758,730.799683 
	C314.248871,725.008118 309.893341,727.713440 306.727997,726.978577 
M706.965637,729.475647 
	C705.655518,724.100464 700.850769,728.854370 698.274902,726.095398 
	C698.274902,724.493164 698.274902,722.439209 698.274902,719.900757 
	C701.291565,719.900757 704.041382,719.900757 706.791260,719.900757 
	C706.943665,719.268433 707.096008,718.636108 707.248413,718.003784 
	C704.087341,717.355835 700.926270,716.707886 697.765137,716.059937 
	C697.899170,715.610474 698.033142,715.161011 698.167175,714.711548 
	C706.695679,712.633057 706.695679,712.633057 706.265320,710.242126 
	C702.332275,710.242126 698.399231,710.242126 694.295349,710.242126 
	C694.295349,717.203491 694.295349,723.920837 694.295349,731.248901 
	C698.685059,730.942688 702.750183,730.659180 706.965637,729.475647 
M586.000000,725.271301 
	C586.100525,726.813293 586.201050,728.355286 586.301575,729.897217 
	C586.754456,730.019958 587.207397,730.142700 587.660278,730.265442 
	C588.397705,728.866333 589.135071,727.467224 589.879578,726.054749 
	C598.129395,731.454956 598.129395,731.454956 599.388855,727.987061 
	C597.978394,726.922363 596.567932,725.857605 594.833435,724.548279 
	C600.270874,722.600098 599.392517,718.393555 598.748535,714.826721 
	C598.105286,711.263672 592.650085,709.594910 586.000000,710.523010 
	C586.000000,715.073608 586.000000,719.699585 586.000000,725.271301 
M559.000366,722.043945 
	C558.999634,719.051819 558.907288,716.056213 559.023132,713.068604 
	C559.146484,709.887512 557.739624,709.504333 555.003540,710.546692 
	C555.003540,714.715149 554.871094,718.695923 555.040588,722.663757 
	C555.212585,726.690491 558.905090,730.885864 562.860107,730.790039 
	C566.664246,730.697815 570.490967,729.354309 571.076721,724.668884 
	C571.603638,720.454041 571.858582,716.184326 571.833923,711.941101 
	C571.829590,711.199951 569.847473,710.470215 567.995300,709.196350 
	C567.995300,714.496948 568.407227,718.214783 567.826599,721.770630 
	C567.522644,723.632507 565.476257,725.209900 564.216797,726.915771 
	C562.479553,725.587830 560.742249,724.259949 559.000366,722.043945 
M477.997803,727.227600 
	C477.998535,725.068542 478.147949,722.896973 477.966919,720.753296 
	C477.655304,717.062866 478.617249,713.381409 482.468597,713.266296 
	C487.080688,713.128418 487.096619,717.349915 487.008881,720.916687 
	C486.959900,722.908447 487.091156,724.907288 486.981262,726.894165 
	C486.808075,730.024597 488.212189,730.482788 490.996521,729.489868 
	C490.996521,725.326294 491.202515,721.343384 490.936554,717.392212 
	C490.687775,713.696655 488.891602,710.709045 484.945038,710.056458 
	C479.385437,709.137024 475.954468,710.782837 474.988098,715.408081 
	C474.032501,719.981384 474.070801,724.762268 473.673126,729.452148 
	C474.098816,729.752686 474.524475,730.053223 474.950165,730.353760 
	C475.961578,729.617676 476.972992,728.881592 477.997803,727.227600 
M614.494385,723.007507 
	C613.697266,725.115967 612.900146,727.224487 612.035828,729.510803 
	C613.193970,730.013733 614.313660,730.499939 615.407532,730.974976 
	C617.156677,727.014160 618.772766,723.354736 620.882385,718.577759 
	C623.222656,723.753357 624.869019,727.394287 626.970642,732.042175 
	C628.011963,730.283142 629.280823,729.058350 629.034058,728.414429 
	C626.536072,721.896362 623.790466,715.473206 621.114258,709.023438 
	C620.686035,709.094788 620.257874,709.166138 619.829712,709.237549 
	C618.195251,713.608887 616.560791,717.980225 614.494385,723.007507 
M376.999939,674.639282 
	C376.999023,673.472961 377.162689,672.274048 376.939941,671.151733 
	C376.788300,670.387817 376.095734,669.731262 375.645081,669.026733 
	C375.097412,669.800903 374.080048,670.570740 374.072784,671.349976 
	C373.969147,682.457031 374.002075,693.565308 374.002075,704.315491 
	C380.987701,704.315491 387.469635,704.315491 393.951569,704.315491 
	C393.937134,703.898499 393.922699,703.481445 393.908295,703.064453 
	C388.372192,703.064453 382.836121,703.064453 376.999939,703.064453 
	C376.999939,693.537231 376.999939,684.572937 376.999939,674.639282 
M402.015381,728.127136 
	C403.024628,728.869812 404.033875,729.612488 406.089111,731.124817 
	C406.089111,724.428772 406.089111,719.344849 406.089111,714.323425 
	C412.015198,713.774231 412.015198,713.774231 411.185089,710.253784 
	C406.218445,710.253784 401.271637,710.253784 396.360748,710.253784 
	C394.712677,716.318054 400.529205,712.604736 402.002167,715.131042 
	C402.002167,718.901672 402.002167,723.051208 402.015381,728.127136 
M672.000000,720.432617 
	C671.999268,717.946899 671.919922,715.458130 672.017334,712.976257 
	C672.146790,709.674744 670.633179,709.489319 668.235718,710.539124 
	C668.235718,717.376526 668.235718,723.948486 668.235718,730.751221 
	C672.192383,730.751221 675.912720,730.751221 680.017578,730.751221 
	C679.958313,724.233276 674.157288,728.704102 672.000000,725.961914 
	C672.000000,724.669189 672.000000,723.031494 672.000000,720.432617 
M262.654938,726.973694 
	C262.103943,725.988342 261.131622,725.025513 261.077637,724.013672 
	C260.883453,720.375061 260.905914,716.716797 261.026337,713.071960 
	C261.130920,709.906250 259.746277,709.518677 257.383545,710.390259 
	C257.383545,717.436035 257.383545,724.137268 257.383545,730.769165 
	C261.376099,730.769165 264.983368,730.769165 268.718140,730.769165 
	C269.791534,725.283325 265.687683,727.545288 262.654938,726.973694 
M412.999939,673.676636 
	C412.999054,672.848267 413.227112,671.926453 412.937317,671.215942 
	C412.601715,670.392944 411.810822,669.755676 411.217590,669.037781 
	C410.812531,669.779053 410.059570,670.518005 410.054596,671.261963 
	C409.979370,682.479431 410.002411,693.697632 410.002411,704.915649 
	C410.615265,705.034058 411.228119,705.152466 411.840973,705.270874 
	C412.227295,704.007690 412.934540,702.747925 412.948303,701.480652 
	C413.045349,692.535095 412.999908,683.588013 412.999939,673.676636 
M425.000061,714.690979 
	C425.000061,719.656433 425.000061,724.621948 425.000061,731.283325 
	C427.055664,729.604065 428.823486,728.848267 428.856903,728.022400 
	C429.097168,722.082458 428.985565,716.128235 428.985565,710.419250 
	C424.941284,709.189636 424.840759,711.345459 425.000061,714.690979 
z"/>
<path fill="#BE1522" opacity="1.000000" stroke="none" 
	d="
M316.047485,324.842712 
	C350.924042,324.894958 385.800629,324.948547 420.677185,324.998505 
	C429.480682,325.011108 438.284149,325.012299 447.547729,325.551147 
	C447.942078,347.829681 447.876312,369.575897 447.525452,391.137756 
	C425.595032,369.264374 403.949707,347.575287 382.304382,325.886200 
	C381.829163,326.082703 381.353912,326.279205 380.878693,326.475708 
	C380.878693,347.998474 380.878693,369.521240 380.544189,390.990662 
	C377.577881,388.238800 374.973511,385.512848 372.309875,382.846130 
	C354.338409,364.854126 336.358582,346.870453 318.361542,328.904053 
	C317.504852,328.048798 316.459930,327.382141 314.830872,326.098145 
	C314.830872,348.748779 314.830872,370.502167 314.375092,392.213806 
	C293.970001,392.151459 274.020630,392.153778 254.071579,392.069641 
	C252.348465,392.062378 250.627747,391.483063 249.181335,390.953552 
	C265.298279,374.851868 281.175415,359.001404 296.962738,343.061981 
	C302.787750,337.180847 308.401093,331.089996 314.110962,325.094818 
	C314.110962,325.094818 314.009247,324.996979 314.383057,325.043579 
	C315.187103,325.007721 315.617279,324.925201 316.047485,324.842712 
z"/>
<path fill="#E20714" opacity="1.000000" stroke="none" 
	d="
M583.033386,458.836304 
	C604.353271,458.892761 625.673096,458.949188 647.526611,459.238159 
	C648.060303,459.470734 648.207397,459.876556 648.129028,460.351318 
	C647.968018,482.474731 647.885254,504.123383 647.786865,525.844849 
	C647.771240,525.917603 647.894287,526.001343 647.744751,525.935791 
	C647.595276,525.870300 647.272095,525.814636 647.108521,525.515503 
	C625.035706,503.767029 603.126526,482.317627 580.927429,460.584381 
	C580.927429,481.997772 580.927429,503.427521 580.636353,524.719910 
	C559.392700,503.590424 538.411499,482.626587 517.553650,461.540771 
	C516.206848,460.179291 515.094360,457.882050 515.082336,456.012329 
	C514.947327,435.019318 515.049622,414.024811 515.380127,393.174927 
	C529.236206,406.836243 542.781189,420.372589 556.371399,433.863342 
	C564.518433,441.950806 572.736267,449.967102 581.090942,458.283630 
	C581.850830,458.646667 582.442139,458.741486 583.033386,458.836304 
z"/>
<path fill="#888685" opacity="1.000000" stroke="none" 
	d="
M714.869568,659.132874 
	C713.514282,659.421631 712.159424,659.959045 710.803589,659.961853 
	C690.143005,660.004089 669.482178,659.976440 648.214966,659.610718 
	C625.794434,637.453613 603.980469,615.650940 582.111328,593.583130 
	C581.940552,592.975586 581.825012,592.633179 581.808472,592.191650 
	C581.907410,592.092651 582.105347,591.894653 582.565063,591.937256 
	C604.674988,591.942871 626.325195,591.905884 648.213379,592.002563 
	C648.601562,592.238647 648.751831,592.341064 648.993408,592.755737 
	C650.135132,594.321533 651.099426,595.660706 652.248962,596.815552 
	C665.637024,610.265564 679.029175,623.711731 692.471069,637.107910 
	C699.887634,644.499268 707.400269,651.794373 714.869568,659.132874 
z"/>
<path fill="#E20714" opacity="1.000000" stroke="none" 
	d="
M248.192444,459.668488 
	C248.132858,437.708954 248.073273,415.749451 248.377747,393.454651 
	C269.251526,413.666962 289.754883,434.220886 310.284973,454.748047 
	C311.678192,456.141052 313.272705,457.332794 314.802979,458.653259 
	C314.832397,458.688416 314.879974,458.778107 314.894043,459.072205 
	C314.948212,459.558441 314.988312,459.750580 315.010864,460.415649 
	C314.990417,480.531891 315.011871,500.175323 314.942200,519.818420 
	C314.936066,521.550720 314.334137,523.281006 313.713226,524.858032 
	C308.488770,519.772705 303.568176,514.833313 298.629700,509.911865 
	C281.820709,493.160645 265.005371,476.415771 248.192444,459.668488 
z"/>
<path fill="#878786" opacity="1.000000" stroke="none" 
	d="
M315.028412,459.942749 
	C314.988312,459.750580 314.948212,459.558441 315.372192,459.161926 
	C337.850739,459.018066 359.865204,459.078552 382.001526,459.450867 
	C385.042999,462.721924 387.963013,465.680786 390.882172,468.640503 
	C409.677643,487.697510 428.472900,506.754730 447.268280,525.811829 
	C425.426910,525.874146 403.585510,525.936523 381.116150,525.641479 
	C377.238312,521.970764 374.021637,518.624084 370.733002,515.349609 
	C352.174316,496.871094 333.598450,478.409851 315.028412,459.942749 
z"/>
<path fill="#C6C6C6" opacity="1.000000" stroke="none" 
	d="
M404.000977,661.000000 
	C397.879517,661.000000 392.257751,661.000000 386.388672,661.000000 
	C386.388672,638.105713 386.388672,615.779480 386.388672,593.842529 
	C408.604553,616.122437 430.820648,638.402527 453.353210,661.000000 
	C437.246887,661.000000 420.873749,661.000000 404.000977,661.000000 
z"/>
<path fill="#C6C6C6" opacity="1.000000" stroke="none" 
	d="
M249.038239,660.098389 
	C249.038239,682.180908 249.038239,704.263428 249.038239,726.652466 
	C226.125732,726.652466 203.812958,726.652466 179.835617,726.652466 
	C202.998810,703.527344 225.160522,681.402100 247.791779,659.318359 
	C248.520279,659.606079 248.779251,659.852234 249.038239,660.098389 
z"/>
<path fill="#ECECEC" opacity="1.000000" stroke="none" 
	d="
M233.341797,311.364563 
	C211.055908,311.685394 189.097641,311.685394 167.158905,311.685394 
	C167.730484,308.395874 226.923248,248.029968 233.154007,244.483643 
	C233.366196,244.711395 233.769394,244.942200 233.769257,245.172729 
	C233.755798,267.129730 233.711624,289.086731 233.341797,311.364563 
z"/>
<path fill="#ECECEC" opacity="1.000000" stroke="none" 
	d="
M231.952240,626.277649 
	C209.768860,604.225464 187.892685,582.376953 166.016495,560.528442 
	C166.268372,560.107056 166.520233,559.685608 166.772110,559.264160 
	C167.818176,559.176086 168.864182,559.012024 169.910324,559.011230 
	C189.564301,558.995972 209.219696,559.124451 228.871185,558.902649 
	C233.171799,558.854065 234.122635,560.304016 234.083786,564.324341 
	C233.897125,583.643433 234.035980,602.965454 233.924957,622.285706 
	C233.916901,623.687378 232.839584,625.082947 231.952240,626.277649 
z"/>
<path fill="#E30613" opacity="1.000000" stroke="none" 
	d="
M767.057007,308.965271 
	C744.936768,308.965240 722.816467,308.965240 700.348267,308.965240 
	C700.348267,286.345276 700.348267,263.844177 700.348267,239.911392 
	C711.990784,251.523300 722.936096,262.439819 734.115662,273.971069 
	C744.284363,284.607269 754.242310,294.605652 764.122437,304.680389 
	C765.315979,305.897461 766.089050,307.526917 767.057007,308.965271 
z"/>
<path fill="#ECECEC" opacity="1.000000" stroke="none" 
	d="
M775.749878,536.749878 
	C772.756409,539.887146 770.013000,542.774414 766.423340,546.552368 
	C766.423340,513.813538 766.423340,482.390594 766.423340,452.235138 
	C781.397888,467.210297 797.069092,482.882141 813.342712,499.156403 
	C801.530029,510.969299 788.765015,523.734619 775.749878,536.749878 
z"/>
<path fill="#ECECEC" opacity="1.000000" stroke="none" 
	d="
M828.751282,565.748718 
	C808.316406,586.187500 788.131836,606.375854 767.000000,627.511597 
	C767.000000,619.363892 766.999878,612.613281 767.000000,605.862610 
	C767.000183,591.712341 767.063599,577.561646 766.950378,563.412292 
	C766.926025,560.370850 767.536743,558.911560 771.037170,558.934143 
	C792.005859,559.069641 812.975830,559.001282 835.250610,559.001282 
	C832.713440,561.639099 830.857483,563.568665 828.751282,565.748718 
z"/>
<path fill="#ECECEC" opacity="1.000000" stroke="none" 
	d="
M197.250031,494.250031 
	C209.195740,482.304626 220.891479,470.609222 233.413666,458.087433 
	C233.713852,460.685730 233.979706,461.922852 233.981369,463.160309 
	C234.007416,482.625824 233.955338,502.091614 234.045853,521.556702 
	C234.059799,524.552490 233.540359,526.090942 229.998520,526.066772 
	C209.369339,525.925903 188.738724,525.997192 168.108612,525.977600 
	C167.683197,525.977234 167.257996,525.746155 166.078934,525.403992 
	C176.630157,514.858643 186.815109,504.679352 197.250031,494.250031 
z"/>
<path fill="#E30613" opacity="1.000000" stroke="none" 
	d="
M285.131653,740.617981 
	C285.145172,739.886841 285.402618,739.059570 285.662292,739.058838 
	C307.605316,738.999390 329.548553,739.004028 351.744995,739.004028 
	C351.744995,761.419983 351.744995,783.498901 351.744995,807.183289 
	C329.122253,784.592163 307.249451,762.749939 285.131653,740.617981 
z"/>
<path fill="#ECECEC" opacity="1.000000" stroke="none" 
	d="
M479.246155,800.253540 
	C477.136017,803.021301 475.276978,805.538208 473.417938,808.055115 
	C472.796112,807.578918 472.174286,807.102722 471.552490,806.626465 
	C471.368713,805.569580 471.026428,804.512878 471.024689,803.455688 
	C470.992371,783.824097 471.032562,764.192322 470.964966,744.560913 
	C470.955139,741.712158 471.195953,739.905823 474.883759,739.932068 
	C495.678955,740.080261 516.475647,740.008362 537.271851,740.030518 
	C537.543701,740.030762 537.815308,740.279602 538.770325,740.746399 
	C518.890930,760.620178 499.194092,780.311401 479.246155,800.253540 
z"/>
<path fill="#ECEBEB" opacity="1.000000" stroke="none" 
	d="
M583.189819,458.553864 
	C582.442139,458.741486 581.850830,458.646667 581.163574,457.817871 
	C581.076172,453.440460 581.074890,449.796936 581.095032,446.153564 
	C581.194702,428.111237 581.300110,410.068878 581.844299,392.044891 
	C603.898315,392.004700 625.511536,391.946167 647.316284,391.949036 
	C647.507874,392.010376 647.903381,392.083984 647.926392,392.299988 
	C647.949402,392.516022 648.025696,392.943756 648.025696,392.943756 
	C646.358154,394.787628 644.764282,396.704926 643.011719,398.464142 
	C623.137268,418.413879 603.238525,438.339417 583.189819,458.553864 
z"/>
<path fill="#C6C6C6" opacity="1.000000" stroke="none" 
	d="
M450.000000,242.998474 
	C450.000000,226.207275 450.000000,209.915863 450.000000,194.817719 
	C471.576874,216.397034 493.519928,238.342606 514.772644,259.597717 
	C494.686676,259.597717 472.806763,259.597717 450.000000,259.597717 
	C450.000000,254.324112 450.000000,248.911179 450.000000,242.998474 
z"/>
<path fill="#C6C5C5" opacity="1.000000" stroke="none" 
	d="
M581.179993,659.866516 
	C559.067932,659.866516 536.955811,659.866516 513.970398,659.866516 
	C513.970398,637.745972 513.970398,615.860596 513.987915,593.227417 
	C514.043701,592.291016 514.081970,592.102539 514.351318,592.015991 
	C514.954773,592.450012 515.327087,592.782104 515.852905,593.420410 
	C537.682983,615.442444 559.359558,637.158325 581.062378,659.123657 
	C581.119141,659.537659 581.149597,659.702087 581.179993,659.866516 
z"/>
<path fill="#ECECEC" opacity="1.000000" stroke="none" 
	d="
M514.120178,591.914062 
	C514.081970,592.102539 514.043701,592.291016 513.950317,592.763062 
	C493.729095,593.031067 473.561188,592.869812 453.398102,593.111145 
	C448.845032,593.165588 447.861389,591.725586 447.903992,587.438477 
	C448.104279,567.274475 447.969055,547.107117 447.861145,526.424561 
	C447.768738,525.908203 447.815491,525.772644 448.162231,525.854370 
	C448.982300,525.919189 449.455627,525.902283 450.075897,526.194824 
	C458.306183,534.660522 466.347076,542.859253 474.482422,550.963196 
	C487.567200,563.997253 500.714355,576.968750 513.912537,590.285767 
	C514.033386,591.041260 514.076782,591.477661 514.120178,591.914062 
z"/>
<path fill="#E30613" opacity="1.000000" stroke="none" 
	d="
M722.856079,750.930420 
	C709.302246,764.390015 695.685730,777.787415 682.227966,791.342346 
	C677.416565,796.188477 672.989014,801.415710 667.370300,805.846558 
	C667.370300,783.398560 667.370300,760.950562 667.370300,737.994202 
	C682.921936,737.994202 698.496033,737.994202 714.863403,738.223938 
	C721.415649,738.453674 727.174561,738.453674 733.817810,738.453674 
	C729.519043,743.346619 726.187561,747.138550 722.856079,750.930420 
z"/>
<path fill="#C6C6C6" opacity="1.000000" stroke="none" 
	d="
M767.339417,309.134064 
	C766.089050,307.526917 765.315979,305.897461 764.122437,304.680389 
	C754.242310,294.605652 744.284363,284.607269 734.290161,274.263794 
	C748.401672,259.879913 762.587219,245.832443 776.722046,231.733978 
	C778.128052,230.331543 779.224243,228.618439 780.464172,227.049530 
	C780.833435,227.274765 781.202637,227.500000 781.571899,227.725235 
	C781.571899,259.163116 781.571899,290.601013 781.571899,322.829285 
	C776.746277,318.150238 772.184082,313.726532 767.339417,309.134064 
z"/>
<path fill="#E30815" opacity="1.000000" stroke="none" 
	d="
M314.835693,257.960938 
	C326.171204,246.958725 337.506714,235.956497 348.648438,225.142365 
	C348.648438,246.734589 348.648438,269.068878 348.648438,292.015564 
	C338.160553,292.015564 327.564056,292.015564 316.052399,291.915344 
	C304.576080,291.815125 294.014893,291.815125 283.453735,291.815125 
	C283.224213,291.322021 282.994690,290.828949 282.765198,290.335846 
	C288.821075,284.470642 294.962189,278.690155 300.905884,272.713379 
	C305.673309,267.919403 310.201416,262.887360 314.835693,257.960938 
z"/>
<path fill="#BE1522" opacity="1.000000" stroke="none" 
	d="
M648.491760,392.968750 
	C648.025696,392.943756 647.949402,392.516022 647.955322,391.829010 
	C648.024292,369.355621 648.087402,347.569275 648.425293,325.973938 
	C670.742432,348.147064 692.784851,370.129120 714.827209,392.111206 
	C713.312073,392.407654 711.797668,392.958191 710.281738,392.962280 
	C689.840576,393.017181 669.399170,392.996033 648.491760,392.968750 
z"/>
<path fill="#C6C6C6" opacity="1.000000" stroke="none" 
	d="
M648.207397,459.876556 
	C648.207397,459.876556 648.060303,459.470734 647.989380,459.266998 
	C670.012573,459.063263 692.106628,459.063263 714.453552,459.063263 
	C714.666016,460.471283 714.974915,461.570374 714.976501,462.669891 
	C715.005737,482.795807 715.002441,502.921783 714.982788,523.047729 
	C714.981995,523.860596 714.752441,524.673218 714.159912,525.391235 
	C691.862732,503.489807 670.035034,481.683197 648.207397,459.876556 
z"/>
<path fill="#BE1623" opacity="1.000000" stroke="none" 
	d="
M249.502563,660.055908 
	C248.779251,659.852234 248.520279,659.606079 248.081436,659.161133 
	C247.945999,637.256714 247.990433,615.551208 248.295959,593.387024 
	C248.557053,592.928406 248.887985,592.961975 249.025772,593.274780 
	C271.049957,615.436096 292.936340,637.284607 314.822754,659.133057 
	C313.131989,659.422791 311.441986,659.959290 309.750305,659.964539 
	C289.822632,660.026794 269.894745,660.009583 249.502563,660.055908 
z"/>
<path fill="#888585" opacity="1.000000" stroke="none" 
	d="
M314.773590,458.618134 
	C313.272705,457.332794 311.678192,456.141052 310.284973,454.748047 
	C289.754883,434.220886 269.251526,413.666962 248.434753,392.978882 
	C248.110992,392.462799 248.094299,392.087219 248.316238,391.416962 
	C248.554855,391.122253 248.905914,391.169464 248.905914,391.169495 
	C250.627747,391.483063 252.348465,392.062378 254.071579,392.069641 
	C274.020630,392.153778 293.970001,392.151459 314.445435,392.409637 
	C314.971588,392.647186 315.087433,393.047638 315.050476,393.512634 
	C314.933533,415.524445 314.853546,437.071289 314.773590,458.618134 
z"/>
<path fill="#E20714" opacity="1.000000" stroke="none" 
	d="
M648.150513,325.782898 
	C648.087402,347.569275 648.024292,369.355621 647.932251,391.612976 
	C647.903381,392.083984 647.507874,392.010376 647.167480,391.649323 
	C626.032349,370.426575 605.243286,349.559204 584.426025,328.719971 
	C583.395203,327.688049 582.119080,326.901184 581.057861,325.785339 
	C581.158508,325.570526 581.293823,325.115723 581.293823,325.115723 
	C603.244812,325.081665 625.195740,325.047577 647.627502,325.236877 
	C648.108276,325.460266 648.150513,325.782898 648.150513,325.782898 
z"/>
<path fill="#ECECEC" opacity="1.000000" stroke="none" 
	d="
M648.902161,592.443542 
	C648.751831,592.341064 648.601562,592.238647 648.221558,591.543762 
	C647.959290,569.301331 647.926758,547.651367 647.894287,526.001343 
	C647.894287,526.001343 647.771240,525.917603 648.184998,525.928467 
	C649.406860,525.997192 650.214966,526.055054 651.023071,526.112915 
	C652.133728,527.693665 653.042297,529.475464 654.385376,530.824890 
	C673.249939,549.778931 692.177734,568.670105 711.073975,587.592529 
	C712.356873,588.877197 713.510803,590.290588 714.320923,592.000000 
	C692.245483,592.385132 670.573853,592.414307 648.902161,592.443542 
z"/>
<path fill="#878786" opacity="1.000000" stroke="none" 
	d="
M648.425293,325.973938 
	C648.150513,325.782898 648.108276,325.460266 648.098145,325.298248 
	C670.191711,325.136230 692.295471,325.136230 714.967651,325.136230 
	C714.967651,347.332947 714.967651,369.249359 714.897461,391.638489 
	C692.784851,370.129120 670.742432,348.147064 648.425293,325.973938 
z"/>
<path fill="#E30613" opacity="1.000000" stroke="none" 
	d="
M447.810547,391.322083 
	C447.876312,369.575897 447.942078,347.829681 448.012146,325.625732 
	C449.256134,326.188324 450.590485,327.113892 451.721466,328.243164 
	C472.267609,348.757721 492.789276,369.296783 513.687927,390.234619 
	C514.132996,390.822357 514.206238,391.006104 513.954895,391.478271 
	C492.112213,391.841339 470.594208,391.919769 449.076111,391.962463 
	C448.654694,391.963318 448.232422,391.544891 447.810547,391.322083 
z"/>
<path fill="#C6C6C6" opacity="1.000000" stroke="none" 
	d="
M514.279541,391.189819 
	C514.206238,391.006104 514.132996,390.822357 514.004761,390.346680 
	C513.949829,368.600281 513.949829,347.145813 513.949829,325.037415 
	C536.449524,325.037415 558.381470,325.037415 580.803589,325.076569 
	C581.293823,325.115723 581.158508,325.570526 581.088867,325.781860 
	C581.019165,325.993195 581.017639,325.930786 580.704224,326.058777 
	C558.919373,347.810516 537.447998,369.434265 515.696167,391.107758 
	C515.232605,391.206848 515.049316,391.256226 514.725464,391.245544 
	C514.585022,391.185486 514.279541,391.189819 514.279541,391.189819 
z"/>
<path fill="#E30613" opacity="1.000000" stroke="none" 
	d="
M648.993408,592.755737 
	C670.573853,592.414307 692.245483,592.385132 714.374451,592.340698 
	C714.882690,614.273438 714.933655,636.221252 714.927063,658.651001 
	C707.400269,651.794373 699.887634,644.499268 692.471069,637.107910 
	C679.029175,623.711731 665.637024,610.265564 652.248962,596.815552 
	C651.099426,595.660706 650.135132,594.321533 648.993408,592.755737 
z"/>
<path fill="#E30613" opacity="1.000000" stroke="none" 
	d="
M248.887985,592.961975 
	C248.887985,592.961975 248.557053,592.928406 248.390854,592.921509 
	C248.155945,570.925110 248.087234,548.935608 248.296295,526.488220 
	C248.574051,526.030273 248.989014,526.137329 249.150146,526.419189 
	C268.432312,545.867432 287.544159,565.042969 306.686279,584.188354 
	C309.022186,586.524719 311.520599,588.698730 313.926147,591.361450 
	C312.230804,592.124207 310.554749,592.768188 308.874969,592.777954 
	C288.879639,592.893982 268.883728,592.915588 248.887985,592.961975 
z"/>
<path fill="#E30613" opacity="1.000000" stroke="none" 
	d="
M581.635132,659.913147 
	C581.149597,659.702087 581.119141,659.537659 581.060181,658.664673 
	C581.023621,638.292297 580.986816,618.628296 581.057739,598.964783 
	C581.063904,597.257996 581.780090,595.553650 582.166504,593.848206 
	C603.980469,615.650940 625.794434,637.453613 647.742493,659.546143 
	C625.947815,659.877197 604.019043,659.918457 581.635132,659.913147 
z"/>
<path fill="#C6C5C5" opacity="1.000000" stroke="none" 
	d="
M249.181335,390.953552 
	C248.905914,391.169464 248.554855,391.122253 248.378647,391.136353 
	C248.202438,369.362976 248.202438,347.575439 248.202438,325.034393 
	C270.002960,325.034393 291.580963,325.034393 313.634949,325.064606 
	C308.401093,331.089996 302.787750,337.180847 296.962738,343.061981 
	C281.175415,359.001404 265.298279,374.851868 249.181335,390.953552 
z"/>
<path fill="#E20714" opacity="1.000000" stroke="none" 
	d="
M447.424072,525.844238 
	C428.472900,506.754730 409.677643,487.697510 390.882172,468.640503 
	C387.963013,465.680786 385.042999,462.721924 382.481262,459.388672 
	C404.562256,458.973358 426.285400,458.932068 448.016479,459.366272 
	C447.954803,481.818695 447.885132,503.795685 447.815491,525.772644 
	C447.815491,525.772644 447.768738,525.908203 447.819214,525.958191 
	C447.869659,526.008179 447.579834,525.876709 447.424072,525.844238 
z"/>
<path fill="#ECEBEB" opacity="1.000000" stroke="none" 
	d="
M723.333496,750.951294 
	C726.187561,747.138550 729.519043,743.346619 733.817810,738.453674 
	C727.174561,738.453674 721.415649,738.453674 715.332031,738.199402 
	C715.007202,719.862122 715.007202,701.779114 715.007202,683.696045 
	C715.443848,683.424683 715.880432,683.153381 716.317078,682.882019 
	C738.144531,705.127747 759.971985,727.373535 781.799438,749.619263 
	C781.735168,750.070190 781.670898,750.521179 781.606628,750.972107 
	C762.341370,750.972107 743.076050,750.972107 723.333496,750.951294 
z"/>
<path fill="#878786" opacity="1.000000" stroke="none" 
	d="
M249.025772,593.274780 
	C268.883728,592.915588 288.879639,592.893982 308.874969,592.777954 
	C310.554749,592.768188 312.230804,592.124207 314.105103,591.359802 
	C314.301575,590.944702 314.632355,591.080750 314.632355,591.080750 
	C314.754822,602.504883 314.927612,613.928711 314.985291,625.353149 
	C315.040527,636.296265 314.976288,647.239868 314.893677,658.658203 
	C292.936340,637.284607 271.049957,615.436096 249.025772,593.274780 
z"/>
<path fill="#BE1623" opacity="1.000000" stroke="none" 
	d="
M315.010864,460.415649 
	C333.598450,478.409851 352.174316,496.871094 370.733002,515.349609 
	C374.021637,518.624084 377.238312,521.970764 380.641296,525.556519 
	C359.139008,525.881470 337.483551,525.933899 315.257996,525.986450 
	C314.687866,525.986511 314.501160,526.015381 314.341003,525.782776 
	C314.123535,525.370850 314.066223,525.191528 314.008911,525.012207 
	C314.334137,523.281006 314.936066,521.550720 314.942200,519.818420 
	C315.011871,500.175323 314.990417,480.531891 315.010864,460.415649 
z"/>
<path fill="#878786" opacity="1.000000" stroke="none" 
	d="
M651.488159,526.067627 
	C650.214966,526.055054 649.406860,525.997192 648.200684,525.855713 
	C647.885254,504.123383 647.968018,482.474731 648.129028,460.351318 
	C670.035034,481.683197 691.862732,503.489807 713.794922,525.603027 
	C693.250793,525.947144 672.602051,525.984680 651.488159,526.067627 
z"/>
<path fill="#878786" opacity="1.000000" stroke="none" 
	d="
M313.713196,524.858032 
	C314.066223,525.191528 314.123535,525.370850 313.814301,525.763184 
	C291.961487,526.029907 270.475250,526.083618 248.989014,526.137329 
	C248.989014,526.137329 248.574051,526.030273 248.359985,526.024658 
	C248.112808,504.231110 248.079681,482.443237 248.119507,460.161926 
	C265.005371,476.415771 281.820709,493.160645 298.629700,509.911865 
	C303.568176,514.833313 308.488770,519.772705 313.713196,524.858032 
z"/>
<path fill="#BE1522" opacity="1.000000" stroke="none" 
	d="
M249.150146,526.419189 
	C270.475250,526.083618 291.961487,526.029907 313.974426,525.995789 
	C314.501160,526.015381 314.687866,525.986511 314.781647,525.975647 
	C314.814056,547.347290 314.752686,568.729858 314.661835,590.596558 
	C314.632355,591.080750 314.301575,590.944702 314.122620,590.946289 
	C311.520599,588.698730 309.022186,586.524719 306.686279,584.188354 
	C287.544159,565.042969 268.432312,545.867432 249.150146,526.419189 
z"/>
<path fill="#C6C6C6" opacity="1.000000" stroke="none" 
	d="
M314.377991,257.970886 
	C310.201416,262.887360 305.673309,267.919403 300.905884,272.713379 
	C294.962189,278.690155 288.821075,284.470642 282.765198,290.335846 
	C282.994690,290.828949 283.224213,291.322021 283.453735,291.815125 
	C294.014893,291.815125 304.576080,291.815125 315.588623,291.965332 
	C316.031891,302.719299 316.023743,313.323029 316.031555,324.384705 
	C315.617279,324.925201 315.187103,325.007721 314.427979,325.097656 
	C311.369263,322.206604 308.709015,319.238678 305.898285,316.420898 
	C288.023682,298.501587 270.113892,280.617432 252.223267,262.714111 
	C250.964096,261.454041 249.765778,260.133240 247.723175,257.980804 
	C270.505341,257.980804 292.212769,257.980804 314.377991,257.970886 
z"/>
<path fill="#E30B18" opacity="1.000000" stroke="none" 
	d="
M690.995178,690.200439 
	C690.999329,691.828369 691.145630,693.016846 690.974060,694.157654 
	C690.311462,698.564636 692.309875,701.061157 696.485352,701.971863 
	C700.649597,702.880127 703.546997,700.364990 704.705200,697.164062 
	C706.050415,693.446228 704.993530,689.839722 700.611877,687.846497 
	C697.546082,686.451782 694.653198,684.503113 692.014465,682.388367 
	C688.903076,679.894714 688.088684,676.598816 689.719727,672.711609 
	C691.533936,668.387939 695.229431,667.131592 698.968994,668.224792 
	C701.634644,669.004089 703.757568,671.799377 705.973083,673.856201 
	C706.594482,674.433167 706.686340,675.580627 707.021057,676.466431 
	C706.691833,676.885193 706.362549,677.303955 706.033264,677.722717 
	C704.369507,676.583252 702.728638,675.408264 701.034363,674.316101 
	C699.769043,673.500488 698.278870,672.019470 697.173096,672.242737 
	C695.950806,672.489380 694.342468,674.261169 694.201782,675.514648 
	C694.043518,676.924377 694.932983,679.044495 696.078979,679.889221 
	C698.796814,681.892517 702.015625,683.198547 704.886230,685.016541 
	C709.448669,687.906189 711.395264,694.433167 709.301758,699.186035 
	C707.196533,703.965515 700.932312,707.719666 696.300598,706.977600 
	C690.035950,705.973877 686.094177,701.538635 686.005310,695.356506 
	C685.972229,693.056824 686.000000,690.756226 686.000000,687.123474 
	C688.163818,688.257385 689.577576,688.998230 690.995178,690.200439 
z"/>
<path fill="#E30B18" opacity="1.000000" stroke="none" 
	d="
M619.699219,667.001831 
	C629.246155,669.868225 632.996033,674.922913 632.999512,684.362671 
	C633.002075,691.342773 633.000000,698.322876 633.000000,705.690002 
	C631.668091,705.765564 630.507019,705.831421 629.000000,705.916931 
	C629.000000,698.860535 629.052734,692.225281 628.982178,685.591248 
	C628.932068,680.872131 627.587891,676.439636 623.837280,673.466309 
	C618.291077,669.069519 608.548035,673.010925 607.127319,680.350830 
	C606.200378,685.139893 606.250244,690.131226 606.030151,695.039490 
	C605.874634,698.507019 606.000000,701.987122 606.000000,705.514526 
	C603.126038,706.531433 601.868958,706.088684 601.947510,702.885742 
	C602.118958,695.897095 601.851379,688.897339 602.038269,681.909485 
	C602.266296,673.382446 609.744568,667.035889 619.699219,667.001831 
z"/>
<path fill="#E30B18" opacity="1.000000" stroke="none" 
	d="
M502.935974,683.070068 
	C501.966431,684.356750 500.978729,685.836548 499.921875,685.887695 
	C494.801544,686.135376 489.662659,685.999451 484.268158,685.999451 
	C484.268158,691.379578 484.268158,696.442017 484.268158,702.000854 
	C489.630951,702.000854 494.916595,701.854065 500.181732,702.117615 
	C501.312988,702.174194 502.369965,703.714233 503.461182,704.570862 
	C503.181091,704.978638 502.900970,705.386353 502.620880,705.794067 
	C495.331268,705.794067 488.041656,705.794067 480.375214,705.794067 
	C480.375214,693.841675 480.375214,681.780090 480.375214,669.021362 
	C487.202972,669.021362 494.287292,668.934937 501.362305,669.152405 
	C502.084961,669.174622 502.751556,671.019287 504.002502,672.823669 
	C496.802460,672.823669 490.708130,672.823669 484.311188,672.823669 
	C484.311188,675.956787 484.311188,678.686646 484.311188,681.654663 
	C490.460907,681.969238 496.673431,682.286987 502.935974,683.070068 
z"/>
<path fill="#E30B18" opacity="1.000000" stroke="none" 
	d="
M568.437012,701.575500 
	C574.266052,701.909729 579.751709,701.909729 585.423767,701.909729 
	C586.330933,704.399231 586.717590,706.108032 583.151794,706.034363 
	C577.003174,705.907288 570.850098,705.999146 564.349976,705.999146 
	C564.349976,693.791138 564.349976,681.732117 564.349976,669.005554 
	C570.754761,669.005554 577.345276,668.900696 583.924377,669.126831 
	C584.835693,669.158081 585.690918,670.825012 586.572083,671.734741 
	C586.330566,672.110291 586.088989,672.485901 585.847473,672.861450 
	C580.088318,672.861450 574.329224,672.861450 568.289795,672.861450 
	C568.289795,676.000305 568.289795,678.729431 568.289795,682.000793 
	C573.229675,682.000793 578.180115,681.846497 583.107666,682.114319 
	C584.272095,682.177673 585.359314,683.660828 586.482056,684.490845 
	C586.219788,684.986328 585.957520,685.481812 585.695190,685.977295 
	C579.941406,685.977295 574.187561,685.977295 568.093567,685.977295 
	C568.093567,691.346069 568.093567,696.293701 568.437012,701.575500 
z"/>
<path fill="#E30B18" opacity="1.000000" stroke="none" 
	d="
M538.249878,694.395020 
	C536.588196,699.156250 535.125305,703.566345 533.662415,707.976379 
	C533.289246,708.071899 532.916138,708.167419 532.542969,708.262939 
	C530.803345,703.759705 529.049316,699.261902 527.327393,694.751953 
	C524.515503,687.387268 522.075439,679.852539 518.776855,672.713684 
	C517.124634,669.137756 519.221985,668.968262 521.584473,667.597961 
	C525.230164,676.840393 528.758911,685.786194 532.778015,695.975220 
	C536.468994,686.072937 539.797180,677.143921 543.252686,667.873352 
	C545.781433,668.856201 547.896851,668.897766 546.207031,672.747070 
	C543.176270,679.650818 540.988647,686.924622 538.249878,694.395020 
z"/>
<path fill="#1D1D1B" opacity="1.000000" stroke="none" 
	d="
M337.000061,682.014771 
	C337.000061,677.873718 337.000061,674.229370 337.000061,669.854004 
	C340.330811,669.854004 343.478027,669.602417 346.571442,669.903564 
	C354.244293,670.650696 356.731964,675.416077 353.151611,682.574890 
	C358.391998,687.092041 360.658386,692.619995 357.809601,699.458557 
	C356.383270,702.882507 354.005371,705.059753 350.023834,705.011230 
	C345.881073,704.960693 341.737152,704.999878 337.000061,704.999878 
	C337.000061,697.366699 337.000061,689.939087 337.000061,682.014771 
M340.723724,685.075562 
	C340.402374,690.684631 340.081024,696.293701 339.754089,702.000000 
	C342.855865,702.000000 345.003967,702.002075 347.152039,701.999573 
	C352.680847,701.993103 356.007629,698.792053 355.999664,693.489014 
	C355.991669,688.203430 352.652344,685.006226 347.130066,685.000610 
	C345.311310,684.998718 343.492584,685.004333 340.723724,685.075562 
M351.948883,677.370728 
	C349.642822,672.367615 346.821533,671.235413 340.312134,672.620300 
	C340.312134,675.732727 340.312134,678.805725 340.312134,682.042908 
	C344.581207,681.533081 349.492645,683.891052 351.948883,677.370728 
z"/>
<path fill="#1D1D1B" opacity="1.000000" stroke="none" 
	d="
M428.582275,692.098083 
	C427.025879,684.099792 429.214325,677.605713 435.072784,672.402649 
	C440.108337,667.930420 450.643860,666.255066 458.786957,673.387939 
	C457.417511,675.922668 457.446869,675.871399 454.776184,674.342773 
	C450.028961,671.625549 445.057098,670.142090 439.896667,673.044983 
	C434.303040,676.191406 431.152618,681.091797 431.038696,687.567139 
	C430.902802,695.290527 437.436829,701.987427 445.770721,702.997681 
	C452.323669,703.792053 459.488678,697.956299 461.028839,690.722351 
	C461.304657,689.426758 462.170074,688.256836 462.763275,687.028870 
	C463.145142,688.760010 464.125854,690.611084 463.807068,692.201843 
	C462.278229,699.830383 454.681091,705.924255 447.083527,706.000000 
	C437.577057,706.094788 431.095032,701.250854 428.582275,692.098083 
z"/>
<path fill="#1D1D1B" opacity="1.000000" stroke="none" 
	d="
M255.000092,686.000977 
	C255.000092,680.202820 255.000092,674.904358 255.000092,668.808105 
	C261.511353,670.101257 268.134186,666.728760 274.092773,671.492004 
	C278.320312,674.871460 280.439606,680.805542 278.762604,685.746765 
	C277.012512,690.903320 272.623444,693.964111 266.902252,693.997253 
	C264.106934,694.013428 261.311371,694.000000 258.113495,694.000000 
	C258.113495,697.680664 258.113495,701.094482 258.113495,704.508301 
	C257.575653,704.711548 257.037842,704.914795 256.500000,705.118042 
	C256.000122,704.063416 255.099747,703.020569 255.068359,701.952148 
	C254.917130,696.805420 255.000183,691.651733 255.000092,686.000977 
M269.290863,690.189697 
	C274.091309,688.002258 276.925293,683.520325 275.902740,679.733032 
	C274.263672,673.662415 268.227264,671.157776 258.205994,672.473572 
	C258.205994,678.505066 258.205994,684.555542 258.205994,690.804688 
	C261.835236,690.804688 265.265778,690.804688 269.290863,690.189697 
z"/>
<path fill="#1D1D1B" opacity="1.000000" stroke="none" 
	d="
M296.999939,686.856812 
	C297.000214,695.852295 299.790741,700.624573 305.572418,701.995361 
	C312.977325,703.750977 319.849976,698.460266 319.978516,690.773132 
	C320.084259,684.447815 319.931091,678.117737 320.076141,671.793945 
	C320.097534,670.861084 321.132874,669.951477 321.699097,669.031067 
	C322.132477,669.918030 322.928528,670.799683 322.941772,671.692932 
	C323.045471,678.684509 323.244293,685.689148 322.934601,692.668518 
	C322.577881,700.707153 316.923035,705.030762 307.515533,704.999939 
	C300.241821,704.976135 294.321106,699.719666 294.056976,692.568787 
	C293.799011,685.585205 293.939758,678.583496 294.070892,671.592834 
	C294.089386,670.605957 295.046417,669.636658 295.569061,668.659241 
	C296.046021,668.794739 296.522980,668.930237 296.999939,669.065674 
	C296.999939,674.836609 296.999939,680.607544 296.999939,686.856812 
z"/>
<path fill="#706F6F" opacity="1.000000" stroke="none" 
	d="
M352.000000,719.236633 
	C352.000000,723.188049 352.000000,726.675720 352.000000,730.320007 
	C349.412415,731.503723 347.872986,731.410828 347.980469,728.038940 
	C348.081207,724.879639 348.210785,721.695190 347.922180,718.559143 
	C347.745087,716.635193 346.805206,714.781372 346.064392,712.443237 
	C338.049255,716.991150 342.514191,724.391846 340.039429,731.160278 
	C339.039185,729.254639 338.138580,728.291809 338.074066,727.275879 
	C337.874115,724.125732 338.399353,720.878723 337.823639,717.823730 
	C337.511902,716.169434 335.532867,714.829285 334.305969,713.347412 
	C333.204071,714.920105 331.456787,716.375549 331.144775,718.091797 
	C330.617554,720.992249 331.236145,724.086060 330.882874,727.040039 
	C330.738068,728.251038 329.319611,729.309692 328.480530,730.437683 
	C327.880219,730.129639 327.279938,729.821594 326.679657,729.513550 
	C327.072235,724.816040 326.957672,720.003784 327.988098,715.450562 
	C329.226013,709.980469 332.916962,708.584167 338.113525,710.625671 
	C338.991333,710.970581 340.141113,711.201660 340.995544,710.937195 
	C348.713806,708.548096 351.880493,710.763611 352.000000,719.236633 
z"/>
<path fill="#E30B18" opacity="1.000000" stroke="none" 
	d="
M662.000000,691.993042 
	C661.999817,695.979675 662.198425,699.485840 661.893372,702.947632 
	C661.783875,704.189819 660.459900,705.325012 659.690186,706.509094 
	C659.180847,706.283142 658.671448,706.057190 658.162109,705.831238 
	C658.162109,695.097168 658.162109,684.363098 658.162109,673.875061 
	C653.975891,671.044189 647.763855,675.892151 643.872803,669.005676 
	C654.433350,669.005676 663.691650,668.929932 672.944214,669.126160 
	C673.842712,669.145142 674.705505,670.844971 675.584900,671.764587 
	C675.335388,672.126892 675.085876,672.489136 674.836365,672.851379 
	C670.752625,672.851379 666.668945,672.851379 662.000000,672.851379 
	C662.000000,679.331116 662.000000,685.413147 662.000000,691.993042 
z"/>
<path fill="#706F6F" opacity="1.000000" stroke="none" 
	d="
M364.621887,717.836792 
	C366.784119,711.640564 372.032166,708.654663 377.985321,710.064331 
	C382.827606,711.210999 386.040497,717.007507 384.965820,722.657898 
	C383.988739,727.795105 378.415802,731.823669 373.390472,730.958130 
	C367.997528,730.029297 362.787109,725.044983 364.621887,717.836792 
M377.780701,714.325684 
	C376.313446,714.227783 374.804657,713.861633 373.386566,714.081238 
	C368.722931,714.803467 366.408569,720.158325 369.143494,723.630371 
	C372.027374,727.291565 375.813568,728.050537 378.839020,725.573975 
	C381.907776,723.061890 381.699310,718.442566 377.780701,714.325684 
z"/>
<path fill="#706F6F" opacity="1.000000" stroke="none" 
	d="
M452.757141,710.000488 
	C460.578888,711.045105 462.657104,717.883789 461.961060,722.475159 
	C461.249725,727.167542 455.415314,731.555054 450.786713,730.990356 
	C445.205536,730.309387 440.658997,725.198303 441.008606,719.997864 
	C441.441956,713.551636 445.427551,710.033630 452.757141,710.000488 
M445.394531,718.117493 
	C444.734741,723.730042 448.720032,728.240051 453.245239,726.843811 
	C456.359467,725.882935 458.533234,723.553467 457.838776,720.296753 
	C457.361450,718.058411 455.789581,715.005676 453.969025,714.342468 
	C451.105133,713.299194 447.241760,713.057434 445.394531,718.117493 
z"/>
<path fill="#706F6F" opacity="1.000000" stroke="none" 
	d="
M654.992981,723.126282 
	C654.317993,730.369568 652.090393,731.645264 642.285034,730.634216 
	C642.285034,724.435974 642.285034,718.197388 642.285034,711.872986 
	C648.958313,708.594177 651.868225,710.053467 653.063171,717.223572 
	C653.376892,719.105835 654.329041,720.881592 654.992981,723.126282 
M646.499573,726.970947 
	C649.947571,727.445557 651.884827,725.815002 650.773804,722.577454 
	C650.276062,721.127258 647.619934,720.417847 645.943298,719.372253 
	C645.570129,719.814148 645.196960,720.255981 644.823730,720.697876 
	C645.095825,722.742004 645.367920,724.786194 646.499573,726.970947 
z"/>
<path fill="#706F6F" opacity="1.000000" stroke="none" 
	d="
M526.000000,721.970886 
	C526.000000,717.864197 526.000000,714.248535 526.000000,710.385681 
	C531.743835,709.407654 536.720825,709.920959 540.214111,714.812622 
	C542.723511,718.326538 542.668030,722.384888 540.478882,725.826416 
	C537.289001,730.841370 532.149963,731.657898 526.000000,730.657959 
	C526.000000,727.974060 526.000000,725.218018 526.000000,721.970886 
M537.989319,719.689392 
	C536.927063,714.947327 533.933472,713.414246 529.259460,714.250488 
	C529.259460,718.593018 529.259460,722.684021 529.259460,726.846375 
	C534.343079,727.382385 537.552429,725.809631 537.989319,719.689392 
z"/>
<path fill="#706F6F" opacity="1.000000" stroke="none" 
	d="
M307.187378,726.987915 
	C309.893341,727.713440 314.248871,725.008118 313.926758,730.799683 
	C309.551208,730.799683 305.608704,730.799683 301.332336,730.799683 
	C301.332336,724.000793 301.332336,717.283875 301.332336,710.281372 
	C305.313232,710.281372 309.242981,710.281372 313.198883,710.281372 
	C313.804413,712.873596 313.804413,712.873596 305.195190,714.604919 
	C305.059753,715.079468 304.924316,715.553955 304.788879,716.028503 
	C307.928864,716.661133 311.068848,717.293823 314.208862,717.926453 
	C314.086090,718.554382 313.963348,719.182251 313.840576,719.810181 
	C311.104675,719.810181 308.368774,719.810181 304.217529,719.810181 
	C305.244965,722.743896 305.986481,724.861267 307.187378,726.987915 
z"/>
<path fill="#706F6F" opacity="1.000000" stroke="none" 
	d="
M706.890503,729.925659 
	C702.750183,730.659180 698.685059,730.942688 694.295349,731.248901 
	C694.295349,723.920837 694.295349,717.203491 694.295349,710.242126 
	C698.399231,710.242126 702.332275,710.242126 706.266846,710.244507 
	C706.695679,712.633057 706.695679,712.633057 698.167175,714.711548 
	C698.033142,715.161011 697.899170,715.610474 697.765137,716.059937 
	C700.926270,716.707886 704.087341,717.355835 707.248413,718.003784 
	C707.096008,718.636108 706.943665,719.268433 706.791260,719.900757 
	C704.041382,719.900757 701.291565,719.900757 698.274902,719.900757 
	C698.274902,722.439209 698.274902,724.493164 698.274902,726.095398 
	C700.850769,728.854370 705.655518,724.100464 706.890503,729.925659 
z"/>
<path fill="#706F6F" opacity="1.000000" stroke="none" 
	d="
M586.000000,724.798462 
	C586.000000,719.699585 586.000000,715.073608 586.000000,710.523010 
	C592.650085,709.594910 598.105286,711.263672 598.748535,714.826721 
	C599.392517,718.393555 600.270874,722.600098 594.833435,724.548279 
	C596.567932,725.857605 597.978394,726.922363 599.387634,727.985291 
	C598.129395,731.454956 598.129395,731.454956 589.879578,726.054749 
	C589.135071,727.467224 588.397705,728.866333 587.660278,730.265442 
	C587.207397,730.142700 586.754456,730.019958 586.301575,729.897217 
	C586.201050,728.355286 586.100525,726.813293 586.000000,724.798462 
M595.047302,716.262207 
	C593.277100,715.373474 591.506958,714.484680 589.293518,713.373291 
	C589.293518,716.656311 589.293518,718.738525 589.293518,720.807251 
	C594.556030,720.974609 594.783936,720.823975 595.047302,716.262207 
z"/>
<path fill="#706F6F" opacity="1.000000" stroke="none" 
	d="
M559.002686,722.488037 
	C560.742249,724.259949 562.479553,725.587830 564.216797,726.915771 
	C565.476257,725.209900 567.522644,723.632507 567.826599,721.770630 
	C568.407227,718.214783 567.995300,714.496948 567.995300,709.196350 
	C569.847473,710.470215 571.829590,711.199951 571.833923,711.941101 
	C571.858582,716.184326 571.603638,720.454041 571.076721,724.668884 
	C570.490967,729.354309 566.664246,730.697815 562.860107,730.790039 
	C558.905090,730.885864 555.212585,726.690491 555.040588,722.663757 
	C554.871094,718.695923 555.003540,714.715149 555.003540,710.546692 
	C557.739624,709.504333 559.146484,709.887512 559.023132,713.068604 
	C558.907288,716.056213 558.999634,719.051819 559.002686,722.488037 
z"/>
<path fill="#706F6F" opacity="1.000000" stroke="none" 
	d="
M477.991089,727.686523 
	C476.972992,728.881592 475.961578,729.617676 474.950165,730.353760 
	C474.524475,730.053223 474.098816,729.752686 473.673126,729.452148 
	C474.070801,724.762268 474.032501,719.981384 474.988098,715.408081 
	C475.954468,710.782837 479.385437,709.137024 484.945038,710.056458 
	C488.891602,710.709045 490.687775,713.696655 490.936554,717.392212 
	C491.202515,721.343384 490.996521,725.326294 490.996521,729.489868 
	C488.212189,730.482788 486.808075,730.024597 486.981262,726.894165 
	C487.091156,724.907288 486.959900,722.908447 487.008881,720.916687 
	C487.096619,717.349915 487.080688,713.128418 482.468597,713.266296 
	C478.617249,713.381409 477.655304,717.062866 477.966919,720.753296 
	C478.147949,722.896973 477.998535,725.068542 477.991089,727.686523 
z"/>
<path fill="#706F6F" opacity="1.000000" stroke="none" 
	d="
M614.710327,722.679565 
	C616.560791,717.980225 618.195251,713.608887 619.829712,709.237549 
	C620.257874,709.166138 620.686035,709.094788 621.114258,709.023438 
	C623.790466,715.473206 626.536072,721.896362 629.034058,728.414429 
	C629.280823,729.058350 628.011963,730.283142 626.970642,732.042175 
	C624.869019,727.394287 623.222656,723.753357 620.882385,718.577759 
	C618.772766,723.354736 617.156677,727.014160 615.407532,730.974976 
	C614.313660,730.499939 613.193970,730.013733 612.035828,729.510803 
	C612.900146,727.224487 613.697266,725.115967 614.710327,722.679565 
z"/>
<path fill="#1D1D1B" opacity="1.000000" stroke="none" 
	d="
M376.999939,675.124023 
	C376.999939,684.572937 376.999939,693.537231 376.999939,703.064453 
	C382.836121,703.064453 388.372192,703.064453 393.908295,703.064453 
	C393.922699,703.481445 393.937134,703.898499 393.951569,704.315491 
	C387.469635,704.315491 380.987701,704.315491 374.002075,704.315491 
	C374.002075,693.565308 373.969147,682.457031 374.072784,671.349976 
	C374.080048,670.570740 375.097412,669.800903 375.645081,669.026733 
	C376.095734,669.731262 376.788300,670.387817 376.939941,671.151733 
	C377.162689,672.274048 376.999023,673.472961 376.999939,675.124023 
z"/>
<path fill="#706F6F" opacity="1.000000" stroke="none" 
	d="
M402.008789,727.663940 
	C402.002167,723.051208 402.002167,718.901672 402.002167,715.131042 
	C400.529205,712.604736 394.712677,716.318054 396.360748,710.253784 
	C401.271637,710.253784 406.218445,710.253784 411.185089,710.253784 
	C412.015198,713.774231 412.015198,713.774231 406.089111,714.323425 
	C406.089111,719.344849 406.089111,724.428772 406.089111,731.124817 
	C404.033875,729.612488 403.024628,728.869812 402.008789,727.663940 
z"/>
<path fill="#706F6F" opacity="1.000000" stroke="none" 
	d="
M672.000000,720.913208 
	C672.000000,723.031494 672.000000,724.669189 672.000000,725.961914 
	C674.157288,728.704102 679.958313,724.233276 680.017578,730.751221 
	C675.912720,730.751221 672.192383,730.751221 668.235718,730.751221 
	C668.235718,723.948486 668.235718,717.376526 668.235718,710.539124 
	C670.633179,709.489319 672.146790,709.674744 672.017334,712.976257 
	C671.919922,715.458130 671.999268,717.946899 672.000000,720.913208 
z"/>
<path fill="#706F6F" opacity="1.000000" stroke="none" 
	d="
M263.113007,726.984985 
	C265.687683,727.545288 269.791534,725.283325 268.718140,730.769165 
	C264.983368,730.769165 261.376099,730.769165 257.383545,730.769165 
	C257.383545,724.137268 257.383545,717.436035 257.383545,710.390259 
	C259.746277,709.518677 261.130920,709.906250 261.026337,713.071960 
	C260.905914,716.716797 260.883453,720.375061 261.077637,724.013672 
	C261.131622,725.025513 262.103943,725.988342 263.113007,726.984985 
z"/>
<path fill="#1D1D1B" opacity="1.000000" stroke="none" 
	d="
M412.999939,674.159058 
	C412.999908,683.588013 413.045349,692.535095 412.948303,701.480652 
	C412.934540,702.747925 412.227295,704.007690 411.840973,705.270874 
	C411.228119,705.152466 410.615265,705.034058 410.002411,704.915649 
	C410.002411,693.697632 409.979370,682.479431 410.054596,671.261963 
	C410.059570,670.518005 410.812531,669.779053 411.217590,669.037781 
	C411.810822,669.755676 412.601715,670.392944 412.937317,671.215942 
	C413.227112,671.926453 412.999054,672.848267 412.999939,674.159058 
z"/>
<path fill="#706F6F" opacity="1.000000" stroke="none" 
	d="
M425.000214,714.219604 
	C424.840759,711.345459 424.941284,709.189636 428.985565,710.419250 
	C428.985565,716.128235 429.097168,722.082458 428.856903,728.022400 
	C428.823486,728.848267 427.055664,729.604065 425.000061,731.283325 
	C425.000061,724.621948 425.000061,719.656433 425.000214,714.219604 
z"/>
<path fill="#888685" opacity="1.000000" stroke="none" 
	d="
M448.162231,525.854370 
	C447.885132,503.795685 447.954803,481.818695 448.019745,459.407013 
	C448.015015,458.972290 447.934875,458.990570 448.407104,459.015686 
	C470.368256,459.040802 491.857147,459.040802 513.346069,459.040802 
	C493.061462,437.217560 472.379913,416.669525 451.696014,396.123871 
	C450.750671,395.184814 449.801239,394.248260 448.815247,393.352905 
	C448.597778,393.155457 448.216553,393.138367 447.447876,393.024384 
	C425.041168,392.965302 403.097382,392.920074 381.151794,392.564392 
	C381.059601,391.850616 380.969147,391.447327 380.878693,391.044006 
	C380.878693,369.521240 380.878693,347.998474 380.878693,326.475708 
	C381.353912,326.279205 381.829163,326.082703 382.304382,325.886200 
	C403.949707,347.575287 425.595032,369.264374 447.525452,391.137756 
	C448.232422,391.544891 448.654694,391.963318 449.076111,391.962463 
	C470.594208,391.919769 492.112213,391.841339 513.954895,391.478271 
	C514.279541,391.189819 514.585022,391.185486 514.762817,391.532837 
	C514.989807,392.263702 515.038940,392.647217 515.088074,393.030701 
	C515.049622,414.024811 514.947327,435.019318 515.082336,456.012329 
	C515.094360,457.882050 516.206848,460.179291 517.553650,461.540771 
	C538.411499,482.626587 559.392700,503.590424 580.769592,524.977661 
	C581.500305,525.599609 581.806824,525.826477 582.067749,526.516602 
	C582.049866,548.618164 582.077576,570.256409 582.105347,591.894653 
	C582.105347,591.894653 581.907410,592.092651 581.556641,592.098633 
	C580.860901,592.009827 580.515930,591.914978 580.001465,591.534119 
	C559.772766,571.133118 539.720459,551.011169 519.642212,530.915222 
	C517.898560,529.170105 515.983704,527.596069 514.081909,525.485413 
	C514.015503,503.868378 514.015503,482.708496 514.015503,460.150024 
	C491.917664,482.816406 470.923309,504.350891 449.928955,525.885376 
	C449.455627,525.902283 448.982300,525.919189 448.162231,525.854370 
z"/>
<path fill="#E30613" opacity="1.000000" stroke="none" 
	d="
M380.544189,390.990662 
	C380.969147,391.447327 381.059601,391.850616 380.667999,392.620026 
	C358.486450,393.006622 336.786926,393.027130 315.087433,393.047668 
	C315.087433,393.047638 314.971588,392.647186 314.901245,392.451355 
	C314.830872,370.502167 314.830872,348.748779 314.830872,326.098145 
	C316.459930,327.382141 317.504852,328.048798 318.361542,328.904053 
	C336.358582,346.870453 354.338409,364.854126 372.309875,382.846130 
	C374.973511,385.512848 377.577881,388.238800 380.544189,390.990662 
z"/>
<path fill="#FFFFFF" opacity="1.000000" stroke="none" 
	d="
M582.565063,591.937256 
	C582.077576,570.256409 582.049866,548.618164 582.527954,526.494141 
	C604.446533,525.943787 625.859314,525.879211 647.272095,525.814636 
	C647.272095,525.814636 647.595276,525.870300 647.744751,525.935791 
	C647.926758,547.651367 647.959290,569.301331 647.983643,591.410156 
	C626.325195,591.905884 604.674988,591.942871 582.565063,591.937256 
z"/>
<path fill="#888585" opacity="1.000000" stroke="none" 
	d="
M647.108521,525.515503 
	C625.859314,525.879211 604.446533,525.943787 582.573486,526.030884 
	C581.806824,525.826477 581.500305,525.599609 581.060669,525.114990 
	C580.927429,503.427521 580.927429,481.997772 580.927429,460.584381 
	C603.126526,482.317627 625.035706,503.767029 647.108521,525.515503 
z"/>
<path fill="#BE1522" opacity="1.000000" stroke="none" 
	d="
M515.380127,393.174927 
	C515.038940,392.647217 514.989807,392.263702 514.903320,391.592896 
	C515.049316,391.256226 515.232605,391.206848 516.000610,391.395172 
	C518.394836,391.759308 520.204102,391.992859 522.013733,391.995758 
	C541.633545,392.027191 561.253357,392.022400 581.005737,392.047363 
	C581.138367,392.067230 581.403442,392.026550 581.403442,392.026550 
	C581.300110,410.068878 581.194702,428.111237 581.095032,446.153564 
	C581.074890,449.796936 581.076172,453.440460 580.994873,457.549652 
	C572.736267,449.967102 564.518433,441.950806 556.371399,433.863342 
	C542.781189,420.372589 529.236206,406.836243 515.380127,393.174927 
z"/>
<path fill="#BE1522" opacity="1.000000" stroke="none" 
	d="
M580.171021,591.820129 
	C580.515930,591.914978 580.860901,592.009827 581.457642,592.197632 
	C581.825012,592.633179 581.940552,592.975586 582.111328,593.583130 
	C581.780090,595.553650 581.063904,597.257996 581.057739,598.964783 
	C580.986816,618.628296 581.023621,638.292297 581.033936,658.415161 
	C559.359558,637.158325 537.682983,615.442444 516.342896,593.381104 
	C535.973755,593.018799 555.268311,593.033936 574.562317,592.934753 
	C576.433777,592.925049 578.301514,592.208557 580.171021,591.820129 
z"/>
<path fill="#FFFFFF" opacity="1.000000" stroke="none" 
	d="
M315.050476,393.512634 
	C336.786926,393.027130 358.486450,393.006622 380.669739,392.930481 
	C403.097382,392.920074 425.041168,392.965302 447.487854,393.487549 
	C447.972107,415.639923 447.953491,437.315247 447.934875,458.990570 
	C447.934875,458.990570 448.015015,458.972290 448.011780,458.931519 
	C426.285400,458.932068 404.562256,458.973358 382.359406,459.076843 
	C359.865204,459.078552 337.850739,459.018066 315.358124,458.867828 
	C314.879974,458.778107 314.832397,458.688416 314.802979,458.653259 
	C314.853546,437.071289 314.933533,415.524445 315.050476,393.512634 
z"/>
<path fill="#888685" opacity="1.000000" stroke="none" 
	d="
M580.988159,325.996704 
	C582.119080,326.901184 583.395203,327.688049 584.426025,328.719971 
	C605.243286,349.559204 626.032349,370.426575 646.975952,391.587952 
	C625.511536,391.946167 603.898315,392.004700 581.844238,392.044891 
	C581.403442,392.026550 581.138367,392.067230 581.094849,391.583771 
	C581.040039,369.377136 581.028870,347.653961 581.017639,325.930786 
	C581.017639,325.930786 581.019165,325.993195 580.988159,325.996704 
z"/>
<path fill="#E30613" opacity="1.000000" stroke="none" 
	d="
M580.001465,591.534119 
	C578.301514,592.208557 576.433777,592.925049 574.562317,592.934753 
	C555.268311,593.033936 535.973755,593.018799 516.189331,593.074951 
	C515.327087,592.782104 514.954773,592.450012 514.351318,592.015991 
	C514.076782,591.477661 514.033386,591.041260 513.986145,589.824463 
	C514.037720,568.010193 514.093079,546.976379 514.148376,525.942566 
	C515.983704,527.596069 517.898560,529.170105 519.642212,530.915222 
	C539.720459,551.011169 559.772766,571.133118 580.001465,591.534119 
z"/>
<path fill="#FFFFFF" opacity="1.000000" stroke="none" 
	d="
M514.081909,525.485413 
	C514.093079,546.976379 514.037720,568.010193 513.908752,589.505371 
	C500.714355,576.968750 487.567200,563.997253 474.482422,550.963196 
	C466.347076,542.859253 458.306183,534.660522 450.075928,526.194885 
	C470.923309,504.350891 491.917664,482.816406 514.015503,460.150024 
	C514.015503,482.708496 514.015503,503.868378 514.081909,525.485413 
z"/>
<path fill="#E20714" opacity="1.000000" stroke="none" 
	d="
M580.704224,326.058777 
	C581.028870,347.653961 581.040039,369.377136 580.962219,391.563904 
	C561.253357,392.022400 541.633545,392.027191 522.013733,391.995758 
	C520.204102,391.992859 518.394836,391.759308 516.281006,391.345459 
	C537.447998,369.434265 558.919373,347.810516 580.704224,326.058777 
z"/>
<path fill="#FFFFFF" opacity="1.000000" stroke="none" 
	d="
M341.198792,685.041016 
	C343.492584,685.004333 345.311310,684.998718 347.130066,685.000610 
	C352.652344,685.006226 355.991669,688.203430 355.999664,693.489014 
	C356.007629,698.792053 352.680847,701.993103 347.152039,701.999573 
	C345.003967,702.002075 342.855865,702.000000 339.754089,702.000000 
	C340.081024,696.293701 340.402374,690.684631 341.198792,685.041016 
z"/>
<path fill="#FFFFFF" opacity="1.000000" stroke="none" 
	d="
M351.716187,677.692749 
	C349.492645,683.891052 344.581207,681.533081 340.312134,682.042908 
	C340.312134,678.805725 340.312134,675.732727 340.312134,672.620300 
	C346.821533,671.235413 349.642822,672.367615 351.716187,677.692749 
z"/>
<path fill="#FFFFFF" opacity="1.000000" stroke="none" 
	d="
M268.993591,690.497192 
	C265.265778,690.804688 261.835236,690.804688 258.205994,690.804688 
	C258.205994,684.555542 258.205994,678.505066 258.205994,672.473572 
	C268.227264,671.157776 274.263672,673.662415 275.902740,679.733032 
	C276.925293,683.520325 274.091309,688.002258 268.993591,690.497192 
z"/>
<path fill="#FFFFFF" opacity="1.000000" stroke="none" 
	d="
M378.069092,714.614258 
	C381.699310,718.442566 381.907776,723.061890 378.839020,725.573975 
	C375.813568,728.050537 372.027374,727.291565 369.143494,723.630371 
	C366.408569,720.158325 368.722931,714.803467 373.386566,714.081238 
	C374.804657,713.861633 376.313446,714.227783 378.069092,714.614258 
z"/>
<path fill="#FFFFFF" opacity="1.000000" stroke="none" 
	d="
M445.648102,717.806763 
	C447.241760,713.057434 451.105133,713.299194 453.969025,714.342468 
	C455.789581,715.005676 457.361450,718.058411 457.838776,720.296753 
	C458.533234,723.553467 456.359467,725.882935 453.245239,726.843811 
	C448.720032,728.240051 444.734741,723.730042 445.648102,717.806763 
z"/>
<path fill="#FFFFFF" opacity="1.000000" stroke="none" 
	d="
M646.069763,726.900635 
	C645.367920,724.786194 645.095825,722.742004 644.823730,720.697876 
	C645.196960,720.255981 645.570129,719.814148 645.943298,719.372253 
	C647.619934,720.417847 650.276062,721.127258 650.773804,722.577454 
	C651.884827,725.815002 649.947571,727.445557 646.069763,726.900635 
z"/>
<path fill="#FFFFFF" opacity="1.000000" stroke="none" 
	d="
M537.993225,720.094727 
	C537.552429,725.809631 534.343079,727.382385 529.259460,726.846375 
	C529.259460,722.684021 529.259460,718.593018 529.259460,714.250488 
	C533.933472,713.414246 536.927063,714.947327 537.993225,720.094727 
z"/>
<path fill="#FFFFFF" opacity="1.000000" stroke="none" 
	d="
M595.243835,716.604492 
	C594.783936,720.823975 594.556030,720.974609 589.293518,720.807251 
	C589.293518,718.738525 589.293518,716.656311 589.293518,713.373291 
	C591.506958,714.484680 593.277100,715.373474 595.243835,716.604492 
z"/>
<path fill="#BE1522" opacity="1.000000" stroke="none" 
	d="
M448.407104,459.015686 
	C447.953491,437.315247 447.972107,415.639923 447.950745,393.501404 
	C448.216553,393.138367 448.597778,393.155457 448.815247,393.352905 
	C449.801239,394.248260 450.750671,395.184814 451.696014,396.123871 
	C472.379913,416.669525 493.061462,437.217560 513.346069,459.040802 
	C491.857147,459.040802 470.368256,459.040802 448.407104,459.015686 
z"/>
</svg>